<mxfile host="65bd71144e">
    <diagram id="Iv-c-DBPbkA1Gpz7bKkE" name="ページ1">
        <mxGraphModel dx="684" dy="528" grid="1" gridSize="10" guides="0" tooltips="1" connect="1" arrows="1" fold="1" page="1" pageScale="1" pageWidth="827" pageHeight="1169" math="0" shadow="0">
            <root>
                <mxCell id="0"/>
                <mxCell id="1" parent="0"/>
            </root>
        </mxGraphModel>
    </diagram>
</mxfile>